ffmpeg version N-112380-gc7fb4d0eb6-20231008 Copyright (c) 2000-2023 the FFmpeg developers
  built with gcc 13.2.0 (crosstool-NG 1.25.0.232_c175b21)
  configuration: --prefix=/ffbuild/prefix --pkg-config-flags=--static --pkg-config=pkg-config --cross-prefix=x86_64-w64-mingw32- --arch=x86_64 --target-os=mingw32 --enable-gpl --enable-version3 --disable-debug --enable-shared --disable-static --disable-w32threads --enable-pthreads --enable-iconv --enable-libxml2 --enable-zlib --enable-libfreetype --enable-libfribidi --enable-gmp --enable-lzma --enable-fontconfig --enable-libharfbuzz --enable-libvorbis --enable-opencl --disable-libpulse --enable-libvmaf --disable-libxcb --disable-xlib --enable-amf --enable-libaom --enable-libaribb24 --enable-avisynth --enable-chromaprint --enable-libdav1d --enable-libdavs2 --disable-libfdk-aac --enable-ffnvcodec --enable-cuda-llvm --enable-frei0r --enable-libgme --enable-libkvazaar --enable-libass --enable-libbluray --enable-libjxl --enable-libmp3lame --enable-libopus --enable-librist --enable-libssh --enable-libtheora --enable-libvpx --enable-libwebp --enable-lv2 --enable-libvpl --enable-openal --enable-libopencore-amrnb --enable-libopencore-amrwb --enable-libopenh264 --enable-libopenjpeg --enable-libopenmpt --enable-librav1e --enable-librubberband --enable-schannel --enable-sdl2 --enable-libsoxr --enable-libsrt --enable-libsvtav1 --enable-libtwolame --enable-libuavs3d --disable-libdrm --enable-vaapi --enable-libvidstab --enable-vulkan --enable-libshaderc --enable-libplacebo --enable-libx264 --enable-libx265 --enable-libxavs2 --enable-libxvid --enable-libzimg --enable-libzvbi --extra-cflags=-DLIBTWOLAME_STATIC --extra-cxxflags= --extra-ldflags=-pthread --extra-ldexeflags= --extra-libs=-lgomp --extra-version=20231008
  libavutil      58. 27.100 / 58. 27.100
  libavcodec     60. 30.101 / 60. 30.101
  libavformat    60. 15.100 / 60. 15.100
  libavdevice    60.  2.101 / 60.  2.101
  libavfilter     9. 11.100 /  9. 11.100
  libswscale      7.  4.100 /  7.  4.100
  libswresample   4. 11.100 /  4. 11.100
  libpostproc    57.  2.100 / 57.  2.100
Splitting the commandline.
Reading option '-v' ... matched as option 'v' (set logging level) with argument 'debug'.
Reading option '-nostdin' ... matched as option 'stdin' (enable or disable interaction on standard input) with argument 0.
Reading option '-progress' ... matched as option 'progress' (write program-readable progress information) with argument 'C:/Users/defga/AppData/Local/Temp/KritaFFmpegProgress.iSjIdM'.
Reading option '-r' ... matched as option 'r' (set frame rate (Hz value, fraction or abbreviation)) with argument '8'.
Reading option '-start_number' ... matched as AVOption 'start_number' with argument '0'.
Reading option '-i' ... matched as output url with argument 'C:/Users/defga/OneDrive/Documents/GitHub/AIs-with-Grenade-Launchers-Fight/assets/AI/Idle/frame%04d.png'.
Reading option '-i' ... matched as output url with argument 'C:/Users/defga/OneDrive/Documents/GitHub/AIs-with-Grenade-Launchers-Fight/assets/AI/Idle/palette.png'.
Reading option '-lavfi' ... matched as option 'lavfi' (create a complex filtergraph) with argument '[0:v][1:v] paletteuse'.
Reading option '-y' ... matched as option 'y' (overwrite output files) with argument '1'.
Reading option 'C:/Users/defga/OneDrive/Documents/GitHub/AIs-with-Grenade-Launchers-Fight/assets/AI/Idle/Right.gif' ... matched as output url.
Finished splitting the commandline.
Parsing a group of options: global .
Applying option v (set logging level) with argument debug.
Applying option nostdin (enable or disable interaction on standard input) with argument 0.
Applying option progress (write program-readable progress information) with argument C:/Users/defga/AppData/Local/Temp/KritaFFmpegProgress.iSjIdM.
[file @ 00000130d8878780] Setting default whitelist 'file,crypto,data'
Applying option lavfi (create a complex filtergraph) with argument [0:v][1:v] paletteuse.
Applying option y (overwrite output files) with argument 1.
Successfully parsed a group of options.
Parsing a group of options: input url C:/Users/defga/OneDrive/Documents/GitHub/AIs-with-Grenade-Launchers-Fight/assets/AI/Idle/frame%04d.png.
Applying option r (set frame rate (Hz value, fraction or abbreviation)) with argument 8.
Successfully parsed a group of options.
Opening an input file: C:/Users/defga/OneDrive/Documents/GitHub/AIs-with-Grenade-Launchers-Fight/assets/AI/Idle/frame%04d.png.
[image2 @ 00000130d8876780] Opening 'C:/Users/defga/OneDrive/Documents/GitHub/AIs-with-Grenade-Launchers-Fight/assets/AI/Idle/frame0000.png' for reading
[file @ 00000130d894b3c0] Setting default whitelist 'file,crypto,data'
[AVIOContext @ 00000130d8953540] Statistics: 1240 bytes read, 0 seeks
[image2 @ 00000130d8876780] Opening 'C:/Users/defga/OneDrive/Documents/GitHub/AIs-with-Grenade-Launchers-Fight/assets/AI/Idle/frame0001.png' for reading
[file @ 00000130d8953cc0] Setting default whitelist 'file,crypto,data'
[AVIOContext @ 00000130d894cc80] Statistics: 1240 bytes read, 0 seeks
[image2 @ 00000130d8876780] Opening 'C:/Users/defga/OneDrive/Documents/GitHub/AIs-with-Grenade-Launchers-Fight/assets/AI/Idle/frame0002.png' for reading
[file @ 00000130d8953cc0] Setting default whitelist 'file,crypto,data'
[AVIOContext @ 00000130d8950580] Statistics: 1240 bytes read, 0 seeks
[image2 @ 00000130d8876780] Opening 'C:/Users/defga/OneDrive/Documents/GitHub/AIs-with-Grenade-Launchers-Fight/assets/AI/Idle/frame0003.png' for reading
[file @ 00000130d8953cc0] Setting default whitelist 'file,crypto,data'
[AVIOContext @ 00000130d8950c40] Statistics: 1256 bytes read, 0 seeks
[image2 @ 00000130d8876780] Opening 'C:/Users/defga/OneDrive/Documents/GitHub/AIs-with-Grenade-Launchers-Fight/assets/AI/Idle/frame0004.png' for reading
[file @ 00000130d8953cc0] Setting default whitelist 'file,crypto,data'
[AVIOContext @ 00000130d8952740] Statistics: 1256 bytes read, 0 seeks
[image2 @ 00000130d8876780] Opening 'C:/Users/defga/OneDrive/Documents/GitHub/AIs-with-Grenade-Launchers-Fight/assets/AI/Idle/frame0005.png' for reading
[file @ 00000130d8953cc0] Setting default whitelist 'file,crypto,data'
[AVIOContext @ 00000130d8952e40] Statistics: 1256 bytes read, 0 seeks
Input #0, image2, from 'C:/Users/defga/OneDrive/Documents/GitHub/AIs-with-Grenade-Launchers-Fight/assets/AI/Idle/frame%04d.png':
  Duration: 00:00:00.24, start: 0.000000, bitrate: N/A
  Stream #0:0, 6, 1/25: Video: png, 1 reference frame, rgba(pc, gbr/unknown/unknown), 20x40 [SAR 11811:11811 DAR 1:2], 0/1, 25 fps, 25 tbr, 25 tbn
Successfully opened the file.
Parsing a group of options: input url C:/Users/defga/OneDrive/Documents/GitHub/AIs-with-Grenade-Launchers-Fight/assets/AI/Idle/palette.png.
Successfully parsed a group of options.
Opening an input file: C:/Users/defga/OneDrive/Documents/GitHub/AIs-with-Grenade-Launchers-Fight/assets/AI/Idle/palette.png.
[AVFormatContext @ 00000130d894bc40] Opening 'C:/Users/defga/OneDrive/Documents/GitHub/AIs-with-Grenade-Launchers-Fight/assets/AI/Idle/palette.png' for reading
[file @ 00000130d886dc00] Setting default whitelist 'file,crypto,data'
[png_pipe @ 00000130d894bc40] Format png_pipe probed with size=2048 and score=99
[png_pipe @ 00000130d894bc40] Before avformat_find_stream_info() pos: 0 bytes read:220 seeks:0 nb_streams:1
[png_pipe @ 00000130d894bc40] After avformat_find_stream_info() pos: 220 bytes read:220 seeks:0 frames:1
Input #1, png_pipe, from 'C:/Users/defga/OneDrive/Documents/GitHub/AIs-with-Grenade-Launchers-Fight/assets/AI/Idle/palette.png':
  Duration: N/A, bitrate: N/A
  Stream #1:0, 1, 1/25: Video: png, 1 reference frame, rgba(pc, gbr/unknown/unknown), 16x16 [SAR 1:1 DAR 1:1], 0/1, 25 fps, 25 tbr, 25 tbn
Successfully opened the file.
detected 12 logical cores
Parsing a group of options: output url C:/Users/defga/OneDrive/Documents/GitHub/AIs-with-Grenade-Launchers-Fight/assets/AI/Idle/Right.gif.
Successfully parsed a group of options.
Opening an output file: C:/Users/defga/OneDrive/Documents/GitHub/AIs-with-Grenade-Launchers-Fight/assets/AI/Idle/Right.gif.
[out#0/gif @ 00000130da8379c0] Creating output stream from unlabeled output of complex filtergraph 0. This overrides automatic video mapping.
[vost#0:0/gif @ 00000130da8a4d00] Created video stream from complex filtergraph 0:[paletteuse:default]
[vost#0:0/gif @ 00000130da8a4d00] 
[out#0/gif @ 00000130da8379c0] No explicit maps, mapping streams automatically...
[file @ 00000130da8745c0] Setting default whitelist 'file,crypto,data'
Successfully opened the file.
Stream mapping:
  Stream #0:0 (png) -> paletteuse
  Stream #1:0 (png) -> paletteuse
  paletteuse:default -> Stream #0:0 (gif)
[in#0/image2 @ 00000130d886d5c0] EOF while reading input
[in#0/image2 @ 00000130d886d5c0] Terminating demuxer thread
[vist#0:0/png @ 00000130d8953cc0] Decoder thread received EOF packet
[vist#0:0/png @ 00000130d8953cc0] Decoder returned EOF, finishing
[vist#0:0/png @ 00000130d8953cc0] Terminating decoder thread
[in#1/png_pipe @ 00000130d8953500] EOF while reading input
[in#1/png_pipe @ 00000130d8953500] Terminating demuxer thread
[vist#1:0/png @ 00000130d894c8c0] Decoder thread received EOF packet
[vist#1:0/png @ 00000130d894c8c0] Decoder returned EOF, finishing
[vist#1:0/png @ 00000130d894c8c0] Terminating decoder thread
[graph 0 input from stream 0:0 @ 00000130d887b300] Setting 'video_size' to value '20x40'
[graph 0 input from stream 0:0 @ 00000130d887b300] Setting 'pix_fmt' to value '26'
[graph 0 input from stream 0:0 @ 00000130d887b300] Setting 'time_base' to value '1/8'
[graph 0 input from stream 0:0 @ 00000130d887b300] Setting 'pixel_aspect' to value '11811/11811'
[graph 0 input from stream 0:0 @ 00000130d887b300] Setting 'frame_rate' to value '8/1'
[graph 0 input from stream 0:0 @ 00000130d887b300] w:20 h:40 pixfmt:rgba tb:1/8 fr:8/1 sar:11811/11811
[graph 0 input from stream 1:0 @ 00000130d887a600] Setting 'video_size' to value '16x16'
[graph 0 input from stream 1:0 @ 00000130d887a600] Setting 'pix_fmt' to value '26'
[graph 0 input from stream 1:0 @ 00000130d887a600] Setting 'time_base' to value '1/25'
[graph 0 input from stream 1:0 @ 00000130d887a600] Setting 'pixel_aspect' to value '1/1'
[graph 0 input from stream 1:0 @ 00000130d887a600] Setting 'frame_rate' to value '25/1'
[graph 0 input from stream 1:0 @ 00000130d887a600] w:16 h:16 pixfmt:rgba tb:1/25 fr:25/1 sar:1/1
[format @ 00000130d887ba00] Setting 'pix_fmts' to value 'rgb8|bgr8|rgb4_byte|bgr4_byte|gray|pal8'
[auto_scale_0 @ 00000130d887ac00] w:iw h:ih flags:'' interl:0
[Parsed_paletteuse_0 @ 00000130d8879e00] auto-inserting filter 'auto_scale_0' between the filter 'graph 0 input from stream 0:0' and the filter 'Parsed_paletteuse_0'
[auto_scale_1 @ 00000130d887a700] w:iw h:ih flags:'' interl:0
[Parsed_paletteuse_0 @ 00000130d8879e00] auto-inserting filter 'auto_scale_1' between the filter 'graph 0 input from stream 1:0' and the filter 'Parsed_paletteuse_0'
[AVFilterGraph @ 00000130d886a1c0] query_formats: 5 queried, 2 merged, 2 already done, 0 delayed
[swscaler @ 00000130da9d3f40] [swscaler @ 00000130da9e9f40] Forcing full internal H chroma due to input having non subsampled chroma
[swscaler @ 00000130da9d3f40] [swscaler @ 00000130da9fcf80] Forcing full internal H chroma due to input having non subsampled chroma
[swscaler @ 00000130da9d3f40] [swscaler @ 00000130daa0ff80] Forcing full internal H chroma due to input having non subsampled chroma
[swscaler @ 00000130da9d3f40] [swscaler @ 00000130daa22fc0] Forcing full internal H chroma due to input having non subsampled chroma
[swscaler @ 00000130da9d3f40] [swscaler @ 00000130daa36000] Forcing full internal H chroma due to input having non subsampled chroma
[swscaler @ 00000130da9d3f40] [swscaler @ 00000130daa49040] Forcing full internal H chroma due to input having non subsampled chroma
[swscaler @ 00000130da9d3f40] [swscaler @ 00000130daa5c040] Forcing full internal H chroma due to input having non subsampled chroma
[swscaler @ 00000130da9d3f40] [swscaler @ 00000130daa6f080] Forcing full internal H chroma due to input having non subsampled chroma
[swscaler @ 00000130da9d3f40] [swscaler @ 00000130daa820c0] Forcing full internal H chroma due to input having non subsampled chroma
[swscaler @ 00000130da9d3f40] [swscaler @ 00000130daa95100] Forcing full internal H chroma due to input having non subsampled chroma
[swscaler @ 00000130da9d3f40] [swscaler @ 00000130daaa8100] Forcing full internal H chroma due to input having non subsampled chroma
[swscaler @ 00000130da9d3f40] [swscaler @ 00000130daabb140] Forcing full internal H chroma due to input having non subsampled chroma
[swscaler @ 00000130da9d3f40] [swscaler @ 00000130daad0180] Forcing full internal H chroma due to input having non subsampled chroma
[auto_scale_0 @ 00000130d887ac00] w:20 h:40 fmt:rgba sar:11811/11811 -> w:20 h:40 fmt:bgra sar:1/1 flags:0x00000004
[swscaler @ 00000130daae31c0] [swscaler @ 00000130dac000c0] Forcing full internal H chroma due to input having non subsampled chroma
[swscaler @ 00000130daae31c0] [swscaler @ 00000130dac14100] Forcing full internal H chroma due to input having non subsampled chroma
[swscaler @ 00000130daae31c0] [swscaler @ 00000130dac27100] Forcing full internal H chroma due to input having non subsampled chroma
[swscaler @ 00000130daae31c0] [swscaler @ 00000130dac3a140] Forcing full internal H chroma due to input having non subsampled chroma
[swscaler @ 00000130daae31c0] [swscaler @ 00000130dac4d180] Forcing full internal H chroma due to input having non subsampled chroma
[swscaler @ 00000130daae31c0] [swscaler @ 00000130dac601c0] Forcing full internal H chroma due to input having non subsampled chroma
[swscaler @ 00000130daae31c0] [swscaler @ 00000130dac731c0] Forcing full internal H chroma due to input having non subsampled chroma
[swscaler @ 00000130daae31c0] [swscaler @ 00000130dac86200] Forcing full internal H chroma due to input having non subsampled chroma
[swscaler @ 00000130daae31c0] [swscaler @ 00000130dac99240] Forcing full internal H chroma due to input having non subsampled chroma
[swscaler @ 00000130daae31c0] [swscaler @ 00000130dacac280] Forcing full internal H chroma due to input having non subsampled chroma
[swscaler @ 00000130daae31c0] [swscaler @ 00000130dacbf280] Forcing full internal H chroma due to input having non subsampled chroma
[swscaler @ 00000130daae31c0] [swscaler @ 00000130dacd22c0] Forcing full internal H chroma due to input having non subsampled chroma
[swscaler @ 00000130daae31c0] [swscaler @ 00000130dace5300] Forcing full internal H chroma due to input having non subsampled chroma
[auto_scale_1 @ 00000130d887a700] w:16 h:16 fmt:rgba sar:1/1 -> w:16 h:16 fmt:bgra sar:1/1 flags:0x00000004
[Parsed_paletteuse_0 @ 00000130d8879e00] [framesync @ 00000130da9369c8] Selected 1/200 time base
[Parsed_paletteuse_0 @ 00000130d8879e00] [framesync @ 00000130da9369c8] Sync level 2
[swscaler @ 00000130da9d3f40] [swscaler @ 00000130daad0180] Forcing full internal H chroma due to input having non subsampled chroma
[swscaler @ 00000130da9d3f40] [swscaler @ 00000130da9e8f40] Forcing full internal H chroma due to input having non subsampled chroma
[swscaler @ 00000130da9d3f40] [swscaler @ 00000130da9fbf40] Forcing full internal H chroma due to input having non subsampled chroma
[swscaler @ 00000130da9d3f40] [swscaler @ 00000130daa0ef80] Forcing full internal H chroma due to input having non subsampled chroma
[swscaler @ 00000130da9d3f40] [swscaler @ 00000130daa21fc0] Forcing full internal H chroma due to input having non subsampled chroma
[swscaler @ 00000130da9d3f40] [swscaler @ 00000130daa35000] Forcing full internal H chroma due to input having non subsampled chroma
[swscaler @ 00000130da9d3f40] [swscaler @ 00000130daa48000] Forcing full internal H chroma due to input having non subsampled chroma
[swscaler @ 00000130da9d3f40] [swscaler @ 00000130daa5b040] Forcing full internal H chroma due to input having non subsampled chroma
[swscaler @ 00000130da9d3f40] [swscaler @ 00000130daa6e080] Forcing full internal H chroma due to input having non subsampled chroma
[swscaler @ 00000130da9d3f40] [swscaler @ 00000130daa810c0] Forcing full internal H chroma due to input having non subsampled chroma
[swscaler @ 00000130da9d3f40] [swscaler @ 00000130daa940c0] Forcing full internal H chroma due to input having non subsampled chroma
[swscaler @ 00000130da9d3f40] [swscaler @ 00000130daaa7100] Forcing full internal H chroma due to input having non subsampled chroma
[swscaler @ 00000130da9d3f40] [swscaler @ 00000130daaba140] Forcing full internal H chroma due to input having non subsampled chroma
[auto_scale_0 @ 00000130d887ac00] w:20 h:40 fmt:rgba sar:11811/11811 -> w:20 h:40 fmt:bgra sar:1/1 flags:0x00000004
[swscaler @ 00000130da9d3f40] [swscaler @ 00000130daad0180] Forcing full internal H chroma due to input having non subsampled chroma
[swscaler @ 00000130da9d3f40] [swscaler @ 00000130da9e8f40] Forcing full internal H chroma due to input having non subsampled chroma
[swscaler @ 00000130da9d3f40] [swscaler @ 00000130da9fbf40] Forcing full internal H chroma due to input having non subsampled chroma
[swscaler @ 00000130da9d3f40] [swscaler @ 00000130daa0ef80] Forcing full internal H chroma due to input having non subsampled chroma
[swscaler @ 00000130da9d3f40] [swscaler @ 00000130daa21fc0] Forcing full internal H chroma due to input having non subsampled chroma
[swscaler @ 00000130da9d3f40] [swscaler @ 00000130daa35000] Forcing full internal H chroma due to input having non subsampled chroma
[swscaler @ 00000130da9d3f40] [swscaler @ 00000130daa48000] Forcing full internal H chroma due to input having non subsampled chroma
[swscaler @ 00000130da9d3f40] [swscaler @ 00000130daa5b040] Forcing full internal H chroma due to input having non subsampled chroma
[swscaler @ 00000130da9d3f40] [swscaler @ 00000130daa6e080] Forcing full internal H chroma due to input having non subsampled chroma
[swscaler @ 00000130da9d3f40] [swscaler @ 00000130daa810c0] Forcing full internal H chroma due to input having non subsampled chroma
[swscaler @ 00000130da9d3f40] [swscaler @ 00000130daa940c0] Forcing full internal H chroma due to input having non subsampled chroma
[swscaler @ 00000130da9d3f40] [swscaler @ 00000130daaa7100] Forcing full internal H chroma due to input having non subsampled chroma
[swscaler @ 00000130da9d3f40] [swscaler @ 00000130daaba140] Forcing full internal H chroma due to input having non subsampled chroma
[auto_scale_0 @ 00000130d887ac00] w:20 h:40 fmt:rgba sar:11811/11811 -> w:20 h:40 fmt:bgra sar:1/1 flags:0x00000004
[swscaler @ 00000130da9d3f40] [swscaler @ 00000130daad0180] Forcing full internal H chroma due to input having non subsampled chroma
[swscaler @ 00000130da9d3f40] [swscaler @ 00000130da9e8f40] Forcing full internal H chroma due to input having non subsampled chroma
[swscaler @ 00000130da9d3f40] [swscaler @ 00000130da9fbf40] Forcing full internal H chroma due to input having non subsampled chroma
[swscaler @ 00000130da9d3f40] [swscaler @ 00000130daa0ef80] Forcing full internal H chroma due to input having non subsampled chroma
[swscaler @ 00000130da9d3f40] [swscaler @ 00000130daa21fc0] Forcing full internal H chroma due to input having non subsampled chroma
[swscaler @ 00000130da9d3f40] [swscaler @ 00000130daa35000] Forcing full internal H chroma due to input having non subsampled chroma
[swscaler @ 00000130da9d3f40] [swscaler @ 00000130daa48000] Forcing full internal H chroma due to input having non subsampled chroma
[swscaler @ 00000130da9d3f40] [swscaler @ 00000130daa5b040] Forcing full internal H chroma due to input having non subsampled chroma
[swscaler @ 00000130da9d3f40] [swscaler @ 00000130daa6e080] Forcing full internal H chroma due to input having non subsampled chroma
[swscaler @ 00000130da9d3f40] [swscaler @ 00000130daa810c0] Forcing full internal H chroma due to input having non subsampled chroma
[swscaler @ 00000130da9d3f40] [swscaler @ 00000130daa940c0] Forcing full internal H chroma due to input having non subsampled chroma
[swscaler @ 00000130da9d3f40] [swscaler @ 00000130daaa7100] Forcing full internal H chroma due to input having non subsampled chroma
[swscaler @ 00000130da9d3f40] [swscaler @ 00000130daaba140] Forcing full internal H chroma due to input having non subsampled chroma
[auto_scale_0 @ 00000130d887ac00] w:20 h:40 fmt:rgba sar:11811/11811 -> w:20 h:40 fmt:bgra sar:1/1 flags:0x00000004
[swscaler @ 00000130daae31c0] [swscaler @ 00000130dac000c0] Forcing full internal H chroma due to input having non subsampled chroma
[swscaler @ 00000130daae31c0] [swscaler @ 00000130dac14100] Forcing full internal H chroma due to input having non subsampled chroma
[swscaler @ 00000130daae31c0] [swscaler @ 00000130dac27100] Forcing full internal H chroma due to input having non subsampled chroma
[swscaler @ 00000130daae31c0] [swscaler @ 00000130dac3a140] Forcing full internal H chroma due to input having non subsampled chroma
[swscaler @ 00000130daae31c0] [swscaler @ 00000130dac4d180] Forcing full internal H chroma due to input having non subsampled chroma
[swscaler @ 00000130daae31c0] [swscaler @ 00000130dac601c0] Forcing full internal H chroma due to input having non subsampled chroma
[swscaler @ 00000130daae31c0] [swscaler @ 00000130dac731c0] Forcing full internal H chroma due to input having non subsampled chroma
[swscaler @ 00000130daae31c0] [swscaler @ 00000130dac86200] Forcing full internal H chroma due to input having non subsampled chroma
[swscaler @ 00000130daae31c0] [swscaler @ 00000130dac99240] Forcing full internal H chroma due to input having non subsampled chroma
[swscaler @ 00000130daae31c0] [swscaler @ 00000130dacac280] Forcing full internal H chroma due to input having non subsampled chroma
[swscaler @ 00000130daae31c0] [swscaler @ 00000130dacbf280] Forcing full internal H chroma due to input having non subsampled chroma
[swscaler @ 00000130daae31c0] [swscaler @ 00000130dacd22c0] Forcing full internal H chroma due to input having non subsampled chroma
[swscaler @ 00000130daae31c0] [swscaler @ 00000130dace5300] Forcing full internal H chroma due to input having non subsampled chroma
[auto_scale_1 @ 00000130d887a700] w:16 h:16 fmt:rgba sar:1/1 -> w:16 h:16 fmt:bgra sar:1/1 flags:0x00000004
[swscaler @ 00000130daae31c0] [swscaler @ 00000130dac000c0] Forcing full internal H chroma due to input having non subsampled chroma
[swscaler @ 00000130daae31c0] [swscaler @ 00000130dac14100] Forcing full internal H chroma due to input having non subsampled chroma
[swscaler @ 00000130daae31c0] [swscaler @ 00000130dac27100] Forcing full internal H chroma due to input having non subsampled chroma
[swscaler @ 00000130daae31c0] [swscaler @ 00000130dac3a140] Forcing full internal H chroma due to input having non subsampled chroma
[swscaler @ 00000130daae31c0] [swscaler @ 00000130dac4d180] Forcing full internal H chroma due to input having non subsampled chroma
[swscaler @ 00000130daae31c0] [swscaler @ 00000130dac601c0] Forcing full internal H chroma due to input having non subsampled chroma
[swscaler @ 00000130daae31c0] [swscaler @ 00000130dac731c0] Forcing full internal H chroma due to input having non subsampled chroma
[swscaler @ 00000130daae31c0] [swscaler @ 00000130dac86200] Forcing full internal H chroma due to input having non subsampled chroma
[swscaler @ 00000130daae31c0] [swscaler @ 00000130dac99240] Forcing full internal H chroma due to input having non subsampled chroma
[swscaler @ 00000130daae31c0] [swscaler @ 00000130dacac280] Forcing full internal H chroma due to input having non subsampled chroma
[swscaler @ 00000130daae31c0] [swscaler @ 00000130dacbf280] Forcing full internal H chroma due to input having non subsampled chroma
[swscaler @ 00000130daae31c0] [swscaler @ 00000130dacd22c0] Forcing full internal H chroma due to input having non subsampled chroma
[swscaler @ 00000130daae31c0] [swscaler @ 00000130dace5300] Forcing full internal H chroma due to input having non subsampled chroma
[auto_scale_1 @ 00000130d887a700] w:16 h:16 fmt:rgba sar:1/1 -> w:16 h:16 fmt:bgra sar:1/1 flags:0x00000004
[swscaler @ 00000130daae31c0] [swscaler @ 00000130dac000c0] Forcing full internal H chroma due to input having non subsampled chroma
[swscaler @ 00000130daae31c0] [swscaler @ 00000130dac14100] Forcing full internal H chroma due to input having non subsampled chroma
[swscaler @ 00000130daae31c0] [swscaler @ 00000130dac27100] Forcing full internal H chroma due to input having non subsampled chroma
[swscaler @ 00000130daae31c0] [swscaler @ 00000130dac3a140] Forcing full internal H chroma due to input having non subsampled chroma
[swscaler @ 00000130daae31c0] [swscaler @ 00000130dac4d180] Forcing full internal H chroma due to input having non subsampled chroma
[swscaler @ 00000130daae31c0] [swscaler @ 00000130dac601c0] Forcing full internal H chroma due to input having non subsampled chroma
[swscaler @ 00000130daae31c0] [swscaler @ 00000130dac731c0] Forcing full internal H chroma due to input having non subsampled chroma
[swscaler @ 00000130daae31c0] [swscaler @ 00000130dac86200] Forcing full internal H chroma due to input having non subsampled chroma
[swscaler @ 00000130daae31c0] [swscaler @ 00000130dac99240] Forcing full internal H chroma due to input having non subsampled chroma
[swscaler @ 00000130daae31c0] [swscaler @ 00000130dacac280] Forcing full internal H chroma due to input having non subsampled chroma
[swscaler @ 00000130daae31c0] [swscaler @ 00000130dacbf280] Forcing full internal H chroma due to input having non subsampled chroma
[swscaler @ 00000130daae31c0] [swscaler @ 00000130dacd22c0] Forcing full internal H chroma due to input having non subsampled chroma
[swscaler @ 00000130daae31c0] [swscaler @ 00000130dace5300] Forcing full internal H chroma due to input having non subsampled chroma
[auto_scale_1 @ 00000130d887a700] w:16 h:16 fmt:rgba sar:1/1 -> w:16 h:16 fmt:bgra sar:1/1 flags:0x00000004
[Parsed_paletteuse_0 @ 00000130d8879e00] Copying data in avfilter.
    Last message repeated 2 times
Output #0, gif, to 'C:/Users/defga/OneDrive/Documents/GitHub/AIs-with-Grenade-Launchers-Fight/assets/AI/Idle/Right.gif':
  Metadata:
    encoder         : Lavf60.15.100
  Stream #0:0, 0, 1/100: Video: gif, 1 reference frame, pal8(pc, gbr/unknown/unknown, progressive), 20x40 (0x0) [SAR 1:1 DAR 1:2], 0/1, q=2-31, 200 kb/s, 8 fps, 100 tbn
    Metadata:
      encoder         : Lavc60.30.101 gif
[gif @ 00000130da83c700] 18x38 image at pos (1;2) [area:20x40]
    Last message repeated 1 times
frame=    0 fps=0.0 q=-0.0 size=       0kB time=00:00:00.12 bitrate=   0.0kbits/s speed=3.11x    [Parsed_paletteuse_0 @ 00000130d8879e00] Copying data in avfilter.
[gif @ 00000130da83c700] 18x38 image at pos (1;2) [area:20x40]
[Parsed_paletteuse_0 @ 00000130d8879e00] Copying data in avfilter.
[gif @ 00000130da83c700] 18x39 image at pos (1;1) [area:20x40]
[Parsed_paletteuse_0 @ 00000130d8879e00] Copying data in avfilter.
[gif @ 00000130da83c700] 18x39 image at pos (1;1) [area:20x40]
[Parsed_paletteuse_0 @ 00000130d8879e00] Copying data in avfilter.
[gif @ 00000130da83c700] 18x39 image at pos (1;1) [area:20x40]
[Parsed_paletteuse_0 @ 00000130d8879e00] [framesync @ 00000130da9369c8] Sync level 0
[out_0_0 @ 00000130d887b500] EOF on sink link out_0_0:default.
No more output streams to write to, finishing.
[out#0/gif @ 00000130da8379c0] All streams finished
[out#0/gif @ 00000130da8379c0] Terminating muxer thread
[AVIOContext @ 00000130d8950440] Statistics: 2913 bytes written, 0 seeks, 1 writeouts
[out#0/gif @ 00000130da8379c0] Output file #0 (C:/Users/defga/OneDrive/Documents/GitHub/AIs-with-Grenade-Launchers-Fight/assets/AI/Idle/Right.gif):
[out#0/gif @ 00000130da8379c0]   Output stream #0:0 (video): 6 frames encoded; 6 packets muxed (2893 bytes); 
[out#0/gif @ 00000130da8379c0]   Total: 6 packets (2893 bytes) muxed
[out#0/gif @ 00000130da8379c0] video:3kB audio:0kB subtitle:0kB other streams:0kB global headers:0kB muxing overhead: 0.691324%
frame=    6 fps=0.0 q=-0.0 Lsize=       3kB time=00:00:00.62 bitrate=  37.3kbits/s speed=14.8x    
[AVIOContext @ 00000130d886d240] Statistics: 378 bytes written, 0 seeks, 2 writeouts
[in#0/image2 @ 00000130d886d5c0] Input file #0 (C:/Users/defga/OneDrive/Documents/GitHub/AIs-with-Grenade-Launchers-Fight/assets/AI/Idle/frame%04d.png):
[in#0/image2 @ 00000130d886d5c0]   Input stream #0:0 (video): 6 packets read (7488 bytes); 6 frames decoded; 0 decode errors; 
[in#0/image2 @ 00000130d886d5c0]   Total: 6 packets (7488 bytes) demuxed
[in#1/png_pipe @ 00000130d8953500] Input file #1 (C:/Users/defga/OneDrive/Documents/GitHub/AIs-with-Grenade-Launchers-Fight/assets/AI/Idle/palette.png):
[in#1/png_pipe @ 00000130d8953500]   Input stream #1:0 (video): 1 packets read (220 bytes); 1 frames decoded; 0 decode errors; 
[in#1/png_pipe @ 00000130d8953500]   Total: 1 packets (220 bytes) demuxed
[AVIOContext @ 00000130d894bf00] Statistics: 220 bytes read, 0 seeks
